<svg xmlns="http://www.w3.org/2000/svg" viewBox="0 0 920.48 67.43" xml:space="preserve"><g fill="#7bc148"><path d="M48.03 9.9c-1.61-.73-3.34-1.27-5.19-1.63-1.84-.35-3.83-.53-5.97-.53-8.35 0-15.09 2.28-20.21 6.83-5.13 4.56-7.69 10.52-7.69 17.91 0 7.29 2.42 13.29 7.25 17.97 4.83 4.69 11.03 7.03 18.59 7.03 2.34 0 4.58-.28 6.7-.83 2.12-.56 4.24-1.42 6.35-2.59.88 1.14 1.52 2.15 1.91 3.01.4.86.59 1.66.59 2.4 0 1.82-1.29 3.23-3.87 4.24-2.58 1.01-6.17 1.52-10.77 1.52-4.95 0-9.51-.67-13.69-2.02-4.17-1.35-7.8-3.31-10.88-5.89-3.72-3.1-6.51-6.66-8.37-10.66C.93 42.66 0 38.23 0 33.36c0-5.13 1.14-9.84 3.41-14.13 2.27-4.29 5.66-8.12 10.17-11.49 3.34-2.49 7.29-4.42 11.84-5.78C29.98.6 34.76-.08 39.77-.08c3.87 0 6.58.32 8.15.97 1.57.64 2.35 1.76 2.35 3.34 0 .67-.18 1.47-.55 2.4-.36.92-.93 2.01-1.69 3.27zM62.45 1.33c4.01-.06 8.03-.16 12.06-.31C78.54.87 80.6.8 80.68.8c11.45 0 20.57 2.72 27.36 8.17 6.78 5.45 10.17 12.72 10.17 21.8 0 4.86-1 9.46-3.01 13.78-2.01 4.32-4.9 8.09-8.68 11.32-3.49 2.99-7.57 5.24-12.24 6.75-4.67 1.51-9.9 2.26-15.67 2.26-5.89 0-9.76-.47-11.62-1.41-1.86-.94-2.79-2.74-2.79-5.41 0-.2.14-3.68.42-10.42.28-6.74.42-13.39.42-19.95 0-7.12-.21-12.75-.64-16.9-.42-4.14-1.07-7.29-1.95-9.46zm10.98 7.12c-.21 6.21-.35 11.78-.44 16.72-.09 4.94-.13 9.24-.13 12.9 0 3.22.04 6.37.11 9.43.07 3.06.2 6.04.37 8.94a33.324 33.324 0 0 0 8.35 1.05c8.17 0 14.77-2.29 19.8-6.86 5.02-4.57 7.54-10.56 7.54-17.97 0-7.35-2.49-13.33-7.47-17.93-4.98-4.6-11.46-6.9-19.42-6.9-1.61 0-3.14.05-4.57.15-1.44.11-2.82.26-4.14.47zM126.04 64.78c-.44-.85-.76-1.65-.97-2.42-.21-.76-.31-1.48-.31-2.15 0-3.05 3.06-6.8 9.18-11.25 1.7-1.23 3.02-2.2 3.96-2.9 6.77-5.13 11.71-9.77 14.83-13.93 3.12-4.16 4.68-8.19 4.68-12.08 0-3.43-1.16-6.2-3.47-8.33-2.31-2.12-5.36-3.19-9.14-3.19-2.99 0-5.55.73-7.69 2.18-2.14 1.45-4.01 3.73-5.62 6.83-1.23-.79-2.15-1.65-2.77-2.59-.62-.94-.92-1.93-.92-2.99 0-3.02 1.65-5.6 4.94-7.76s7.4-3.23 12.33-3.23c6.15 0 11.14 1.71 14.96 5.14s5.73 7.87 5.73 13.32c0 5.6-2.53 11.4-7.6 17.4-5.07 6.01-13.11 12.72-24.13 20.13.82.03 1.93.06 3.34.09 2.52.06 4.16.09 4.92.09 5.71 0 10.37-.26 13.97-.77 3.6-.51 6.33-1.3 8.17-2.35.38 1 .67 1.94.86 2.83.19.89.29 1.74.29 2.53 0 1.93-.62 3.29-1.85 4.06-1.23.78-3.49 1.16-6.77 1.16-2.49 0-5.98-.07-10.48-.22s-7.76-.22-9.78-.22c-2.05 0-3.96.05-5.71.15-1.75.12-3.4.27-4.95.47zM222.63 30.95c0 10.37-2.23 18.76-6.7 25.16-4.47 6.4-10.26 9.6-17.38 9.6-6.77 0-12.19-2.78-16.28-8.33-4.09-5.55-6.13-12.96-6.13-22.21 0-10.52 2.17-18.79 6.5-24.81 4.34-6.02 10.27-9.03 17.8-9.03 7.09 0 12.56 2.58 16.41 7.73 3.85 5.16 5.78 12.45 5.78 21.89zm-23.65 27.99c4.92 0 8.75-2.4 11.47-7.19s4.09-11.55 4.09-20.28c0-7.65-1.27-13.48-3.8-17.51-2.53-4.03-6.22-6.04-11.05-6.04-4.89 0-8.66 2.23-11.32 6.68-2.65 4.45-3.98 10.84-3.98 19.16 0 8.06 1.27 14.27 3.8 18.63 2.54 4.37 6.14 6.55 10.79 6.55zM234.45 54.98c1.26 1.05 2.72 1.85 4.37 2.37 1.65.53 3.49.79 5.52.79 4.72 0 8.61-1.13 11.69-3.38 3.08-2.26 4.61-5.07 4.61-8.44 0-2.96-1.08-5.24-3.25-6.86-2.17-1.61-5.7-2.74-10.59-3.38-.82-.12-1.92-.23-3.3-.35-3.52-.29-5.27-1.23-5.27-2.81 0-1.55 1.45-2.65 4.35-3.3.41-.09.73-.16.97-.22 5.68-1.23 9.8-2.79 12.35-4.68s3.82-4.31 3.82-7.27c0-2.64-1.03-4.74-3.08-6.31-2.05-1.57-4.81-2.35-8.26-2.35-2.23 0-4.23.38-6.02 1.14-1.79.76-3.41 1.92-4.88 3.47-1.03-.73-1.79-1.48-2.29-2.24-.5-.76-.75-1.58-.75-2.46 0-2.14 1.35-3.93 4.04-5.38 2.7-1.45 6.17-2.18 10.42-2.18 5.74 0 10.38 1.39 13.91 4.17 3.53 2.78 5.3 6.4 5.3 10.85 0 3.78-1.33 7-3.98 9.67s-6.41 4.54-11.27 5.62c5.48 1.14 9.54 2.9 12.17 5.27s3.96 5.45 3.96 9.23c0 5.57-2.59 10.26-7.78 14.08s-11.66 5.73-19.42 5.73c-3.31 0-5.8-.43-7.47-1.3-1.67-.86-2.5-2.15-2.5-3.85 0-.73.21-1.55.64-2.46.41-.87 1.08-1.94 1.99-3.17zM326.73 30.95c0 10.37-2.23 18.76-6.7 25.16-4.47 6.4-10.26 9.6-17.38 9.6-6.77 0-12.19-2.78-16.28-8.33-4.09-5.55-6.13-12.96-6.13-22.21 0-10.52 2.17-18.79 6.5-24.81 4.34-6.02 10.27-9.03 17.8-9.03 7.09 0 12.56 2.58 16.41 7.73 3.86 5.16 5.78 12.45 5.78 21.89zm-23.64 27.99c4.92 0 8.75-2.4 11.47-7.19s4.09-11.55 4.09-20.28c0-7.65-1.27-13.48-3.8-17.51-2.53-4.03-6.22-6.04-11.05-6.04-4.89 0-8.66 2.23-11.32 6.68-2.65 4.45-3.98 10.84-3.98 19.16 0 8.06 1.27 14.27 3.8 18.63 2.54 4.37 6.13 6.55 10.79 6.55zM362.73 1.33c4.01-.06 8.03-.16 12.06-.31 4.03-.15 6.09-.22 6.17-.22 11.46 0 20.57 2.72 27.36 8.17 6.78 5.45 10.17 12.72 10.17 21.8 0 4.86-1 9.46-3.01 13.78-2.01 4.32-4.9 8.09-8.68 11.32-3.49 2.99-7.57 5.24-12.24 6.75-4.67 1.51-9.89 2.26-15.67 2.26-5.89 0-9.76-.47-11.62-1.41-1.86-.94-2.79-2.74-2.79-5.41 0-.2.14-3.68.42-10.42.28-6.74.42-13.39.42-19.95 0-7.12-.21-12.75-.64-16.9-.43-4.14-1.08-7.29-1.95-9.46zm10.98 7.12c-.21 6.21-.35 11.78-.44 16.72-.09 4.94-.13 9.24-.13 12.9 0 3.22.04 6.37.11 9.43.07 3.06.2 6.04.38 8.94a33.324 33.324 0 0 0 8.35 1.05c8.17 0 14.77-2.29 19.8-6.86 5.02-4.57 7.54-10.56 7.54-17.97 0-7.35-2.49-13.33-7.47-17.93-4.98-4.6-11.46-6.9-19.42-6.9-1.61 0-3.13.05-4.57.15-1.45.11-2.83.26-4.15.47zM462.83 62.19c-1.14.73-2.18 1.29-3.12 1.67-.94.38-1.76.57-2.46.57-1.26 0-2.17-.39-2.75-1.16-.57-.78-.9-2.03-.99-3.76-2.2 1.88-4.37 3.27-6.53 4.17-2.15.91-4.34 1.36-6.57 1.36-4.39 0-7.94-1.23-10.63-3.69s-4.04-5.7-4.04-9.71c0-4.54 1.85-8.18 5.56-10.92 3.71-2.74 8.69-4.11 14.96-4.11 1.03 0 2.12.04 3.27.11 1.16.07 2.39.18 3.71.33.06-.26.09-.53.11-.81.01-.28.02-.61.02-.99 0-3.05-.86-5.37-2.57-6.97-1.71-1.6-4.2-2.4-7.45-2.4-2.7 0-4.92.45-6.66 1.34-1.74.89-3.16 2.28-4.24 4.15-1.05-.26-1.85-.72-2.4-1.36-.54-.64-.81-1.48-.81-2.5 0-2.14 1.35-3.9 4.06-5.3 2.71-1.39 6.25-2.09 10.61-2.09 5.36 0 9.38 1.3 12.06 3.89 2.68 2.59 4.02 6.47 4.02 11.62 0 .97-.04 2.65-.13 5.05s-.13 4.34-.13 5.8c0 4.04.24 7.29.72 9.76.52 2.48 1.3 4.46 2.38 5.95zm-9.67-19.55c-1.35-.2-2.56-.36-3.62-.46-1.07-.1-1.99-.15-2.75-.15-4.54 0-7.97.75-10.28 2.26-2.31 1.51-3.47 3.76-3.47 6.75 0 2.4.81 4.29 2.42 5.67 1.61 1.38 3.84 2.07 6.68 2.07 2.14 0 4.14-.4 6-1.21 1.86-.81 3.57-2.01 5.12-3.63-.06-1.46-.1-2.66-.11-3.58-.02-.92-.02-1.81-.02-2.66 0-.53.01-1.35.04-2.48.02-1.14.02-2-.01-2.58zM475.97 29.28c-.5 0-1.19.02-2.07.07s-1.45.07-1.71.07c-1.2 0-2.04-.17-2.53-.51-.48-.34-.73-.92-.73-1.74 0-.38.07-.83.2-1.34.13-.51.34-1.09.64-1.74.23 0 .63.02 1.19.04.56.03 1 .04 1.32.04.76 0 1.98-.04 3.65-.13.21 0 .37-.01.48-.04 0-.32.01-.81.04-1.45.03-.64.04-1.11.04-1.41 0-2.29-.15-4.3-.44-6.04-.29-1.74-.75-3.27-1.36-4.59 1.26-.62 2.39-1.08 3.38-1.41 1-.32 1.85-.48 2.55-.48 1.2 0 2.07.37 2.61 1.12s.81 1.97.81 3.67c0 .73-.13 3.03-.4 6.9-.09 1.44-.16 2.58-.22 3.43 1.7-.23 3.23-.41 4.59-.53 1.36-.12 2.58-.18 3.67-.18.97 0 1.66.18 2.09.53s.64.92.64 1.71c0 .44-.13.99-.4 1.65s-.64 1.4-1.14 2.22c-.76-.18-1.57-.31-2.42-.4s-1.88-.13-3.08-.13c-.21 0-.82.02-1.85.07s-1.9.08-2.64.11c-.26 4.57-.45 8.33-.57 11.29-.12 2.96-.18 5.38-.18 7.25 0 4.07.36 6.92 1.08 8.55s1.93 2.44 3.63 2.44c.47 0 .96-.09 1.47-.26s1.03-.45 1.56-.83c.26.59.45 1.1.57 1.54s.18.83.18 1.19c0 1.44-.59 2.61-1.78 3.54-1.19.92-2.73 1.38-4.64 1.38-3.16 0-5.51-1.05-7.05-3.14s-2.31-5.31-2.31-9.65c0-1.23.15-4.49.44-9.78.33-5.29.55-9.63.69-13.03zM537.45 62.19c-1.14.73-2.18 1.29-3.12 1.67-.94.38-1.76.57-2.46.57-1.26 0-2.17-.39-2.75-1.16-.57-.78-.9-2.03-.99-3.76-2.2 1.88-4.37 3.27-6.53 4.17-2.15.91-4.34 1.36-6.57 1.36-4.39 0-7.94-1.23-10.63-3.69s-4.04-5.7-4.04-9.71c0-4.54 1.85-8.18 5.56-10.92 3.71-2.74 8.69-4.11 14.96-4.11 1.03 0 2.12.04 3.27.11 1.16.07 2.39.18 3.71.33.06-.26.09-.53.11-.81.01-.28.02-.61.02-.99 0-3.05-.86-5.37-2.57-6.97-1.71-1.6-4.2-2.4-7.45-2.4-2.7 0-4.92.45-6.66 1.34-1.74.89-3.16 2.28-4.24 4.15-1.05-.26-1.85-.72-2.4-1.36-.54-.64-.81-1.48-.81-2.5 0-2.14 1.35-3.9 4.06-5.3 2.71-1.39 6.25-2.09 10.61-2.09 5.36 0 9.38 1.3 12.06 3.89 2.68 2.59 4.02 6.47 4.02 11.62 0 .97-.04 2.65-.13 5.05s-.13 4.34-.13 5.8c0 4.04.24 7.29.72 9.76.51 2.48 1.3 4.46 2.38 5.95zm-9.67-19.55c-1.35-.2-2.56-.36-3.62-.46-1.07-.1-1.99-.15-2.75-.15-4.54 0-7.97.75-10.28 2.26-2.31 1.51-3.47 3.76-3.47 6.75 0 2.4.81 4.29 2.42 5.67 1.61 1.38 3.84 2.07 6.68 2.07 2.14 0 4.14-.4 6-1.21 1.86-.81 3.57-2.01 5.12-3.63-.06-1.46-.1-2.66-.11-3.58-.02-.92-.02-1.81-.02-2.66 0-.53.01-1.35.04-2.48.02-1.14.02-2-.01-2.58zM609.05 10.6c-1.54-.7-3.41-1.21-5.61-1.55-2.2-.33-4.98-.5-8.35-.5-1.4 0-3.98.04-7.77.13-.93.03-1.64.04-2.14.04L584.83 28c.79.06 1.63.09 2.53.09h4.28c3.87 0 7.06-.09 9.58-.26 2.52-.17 4.36-.44 5.52-.79.35.81.61 1.53.79 2.16.17.63.26 1.19.26 1.68 0 1.4-.45 2.4-1.35 3.01-.9.61-2.38.92-4.45.92-.67 0-2.32-.03-4.95-.09-2.63-.06-4.91-.09-6.83-.09-1.45 0-2.57.01-3.36.02-.79.02-1.51.04-2.18.07 0 3.29-.04 6.78-.11 10.49s-.18 7.77-.33 12.19c.29 0 .73.02 1.31.04 3.81.09 6.53.13 8.16.13 3.11 0 5.77-.18 7.96-.55 2.2-.36 4.15-.95 5.87-1.77.64 1.11 1.1 2.07 1.37 2.9.28.83.41 1.59.41 2.29 0 1.54-.51 2.62-1.53 3.25-1.02.63-2.95.94-5.8.94-1.4 0-3.49-.04-6.28-.13s-4.87-.13-6.24-.13c-3.08 0-6.17.07-9.25.22-.64.03-1.03.04-1.18.04-1.02 0-1.74-.23-2.16-.7-.42-.46-.63-1.28-.63-2.44 0-.61.07-2.17.22-4.67.47-9.02.7-17.46.7-25.35 0-7.82-.14-14.09-.41-18.8-.28-4.71-.71-8.24-1.29-10.6H581c6.81 0 13.8-.22 20.98-.65 1.54-.09 2.47-.13 2.79-.13 2.36 0 3.97.26 4.84.79s1.31 1.45 1.31 2.79c0 .76-.15 1.61-.46 2.55-.29.96-.77 2.02-1.41 3.18zM633.21 42.78c-4.48-6.01-7.95-10.32-10.39-12.94-2.45-2.62-4.23-3.98-5.34-4.06.53-1.73 1.23-3.05 2.11-3.96.88-.91 1.89-1.36 3.03-1.36 1.55 0 4.17 2.7 7.87 8.09 2.81 4.1 5.23 7.44 7.25 10.02 4.07-4.45 6.9-7.86 8.48-10.22 1.58-2.36 2.37-4.26 2.37-5.69 0-.2-.01-.4-.04-.59-.03-.19-.07-.39-.13-.59 1.11-.41 1.96-.68 2.55-.81s1.11-.2 1.58-.2c1.26 0 2.21.29 2.86.86s.97 1.4.97 2.48c0 2.29-4.98 8.41-14.94 18.37l-.75.7c.85 1.08 2.02 2.61 3.52 4.57 6.42 8.44 10.31 12.66 11.69 12.66h.09c-.44 1.7-1.08 2.99-1.91 3.87-.83.88-1.84 1.32-3.01 1.32-1.7 0-4.47-2.86-8.31-8.57-2.52-3.75-4.64-6.8-6.37-9.14-4.13 4.39-7 7.72-8.59 9.98-1.6 2.26-2.39 4.06-2.39 5.41 0 .23.04.63.13 1.19.03.12.04.21.04.26-.94.32-1.75.55-2.44.68s-1.31.2-1.87.2c-1.41 0-2.42-.25-3.03-.75s-.92-1.32-.92-2.46c0-2.55 4.53-8.22 13.58-17.01l2.31-2.31zM668.85 29.28c-.5 0-1.19.02-2.07.07s-1.45.07-1.71.07c-1.2 0-2.04-.17-2.53-.51-.48-.34-.73-.92-.73-1.74 0-.38.07-.83.2-1.34.13-.51.34-1.09.64-1.74.23 0 .63.02 1.19.04.56.03 1 .04 1.32.04.76 0 1.98-.04 3.65-.13.21 0 .37-.01.48-.04 0-.32.01-.81.04-1.45.03-.64.04-1.11.04-1.41 0-2.29-.15-4.3-.44-6.04-.29-1.74-.75-3.27-1.36-4.59 1.26-.62 2.39-1.08 3.38-1.41 1-.32 1.85-.48 2.55-.48 1.2 0 2.07.37 2.61 1.12s.81 1.97.81 3.67c0 .73-.13 3.03-.4 6.9-.09 1.44-.16 2.58-.22 3.43 1.7-.23 3.23-.41 4.59-.53 1.36-.12 2.58-.18 3.67-.18.97 0 1.66.18 2.09.53s.64.92.64 1.71c0 .44-.13.99-.4 1.65s-.64 1.4-1.14 2.22c-.76-.18-1.57-.31-2.42-.4s-1.88-.13-3.08-.13c-.21 0-.82.02-1.85.07s-1.9.08-2.64.11c-.26 4.57-.45 8.33-.57 11.29-.12 2.96-.18 5.38-.18 7.25 0 4.07.36 6.92 1.08 8.55s1.93 2.44 3.63 2.44c.47 0 .96-.09 1.47-.26s1.03-.45 1.56-.83c.26.59.45 1.1.57 1.54s.18.83.18 1.19c0 1.44-.59 2.61-1.78 3.54-1.19.92-2.73 1.38-4.64 1.38-3.16 0-5.51-1.05-7.05-3.14s-2.31-5.31-2.31-9.65c0-1.23.15-4.49.44-9.78.32-5.29.54-9.63.69-13.03zM703.13 29.94c2.2-3.08 4.29-5.37 6.28-6.88 1.99-1.51 3.96-2.26 5.89-2.26 1.64 0 3.04.52 4.2 1.56 1.16 1.04 1.74 2.32 1.74 3.85 0 1-.33 1.97-.99 2.92-.66.95-1.65 1.9-2.97 2.83-.47-1.29-1.05-2.24-1.74-2.86-.69-.62-1.52-.92-2.48-.92-1.44 0-2.94.71-4.53 2.13-1.58 1.42-3.13 3.46-4.66 6.13-.15 1.32-.26 2.66-.35 4.02s-.13 2.69-.13 3.98c0 4.39.24 8.06.73 10.99.48 2.93 1.24 5.33 2.26 7.21a18.31 18.31 0 0 1-3.45 1.41c-1.13.32-2.23.48-3.32.48-1.44 0-2.42-.36-2.97-1.08-.54-.72-.81-2.16-.81-4.33 0-.79.15-3.83.46-9.12.31-5.29.46-10.2.46-14.74 0-3.72-.15-6.58-.44-8.57-.29-1.99-.78-3.75-1.45-5.27.59-.2 1.17-.36 1.74-.46.57-.1 1.17-.15 1.78-.15 1.7 0 2.96.4 3.78 1.21.82.81 1.23 2.04 1.23 3.71 0 .38-.02.9-.07 1.56-.04.65-.11 1.53-.19 2.65zM762.8 62.19c-1.14.73-2.18 1.29-3.12 1.67-.94.38-1.76.57-2.46.57-1.26 0-2.17-.39-2.75-1.16-.57-.78-.9-2.03-.99-3.76-2.2 1.88-4.37 3.27-6.53 4.17-2.15.91-4.34 1.36-6.57 1.36-4.39 0-7.94-1.23-10.63-3.69s-4.04-5.7-4.04-9.71c0-4.54 1.85-8.18 5.56-10.92 3.71-2.74 8.69-4.11 14.96-4.11 1.03 0 2.12.04 3.27.11 1.16.07 2.39.18 3.71.33.06-.26.09-.53.11-.81.01-.28.02-.61.02-.99 0-3.05-.86-5.37-2.57-6.97-1.71-1.6-4.2-2.4-7.45-2.4-2.7 0-4.92.45-6.66 1.34-1.74.89-3.16 2.28-4.24 4.15-1.05-.26-1.85-.72-2.4-1.36-.54-.64-.81-1.48-.81-2.5 0-2.14 1.35-3.9 4.06-5.3 2.71-1.39 6.25-2.09 10.61-2.09 5.36 0 9.38 1.3 12.06 3.89 2.68 2.59 4.02 6.47 4.02 11.62 0 .97-.04 2.65-.13 5.05s-.13 4.34-.13 5.8c0 4.04.24 7.29.72 9.76.52 2.48 1.3 4.46 2.38 5.95zm-9.66-19.55c-1.35-.2-2.56-.36-3.62-.46-1.07-.1-1.99-.15-2.75-.15-4.54 0-7.97.75-10.28 2.26-2.31 1.51-3.47 3.76-3.47 6.75 0 2.4.81 4.29 2.42 5.67 1.61 1.38 3.84 2.07 6.68 2.07 2.14 0 4.14-.4 6-1.21 1.86-.81 3.57-2.01 5.12-3.63-.06-1.46-.1-2.66-.11-3.58-.02-.92-.02-1.81-.02-2.66 0-.53.01-1.35.04-2.48.01-1.14.01-2-.01-2.58zM800.33 29.06c-1.14-.7-2.26-1.21-3.34-1.52s-2.29-.46-3.6-.46c-4.45 0-8.16 1.6-11.12 4.79-2.96 3.19-4.44 7.24-4.44 12.13 0 4.42 1.31 7.93 3.93 10.52s6.17 3.89 10.66 3.89c1.93 0 3.69-.26 5.27-.79s3.06-1.35 4.44-2.46c.53.73.93 1.44 1.21 2.11.28.67.42 1.32.42 1.93 0 1.85-1.07 3.31-3.21 4.39-2.14 1.08-5.04 1.63-8.7 1.63-6.42 0-11.63-1.84-15.64-5.52-4.01-3.68-6.02-8.46-6.02-14.35 0-7.15 2.43-13.15 7.29-18.02 4.86-4.86 10.77-7.29 17.71-7.29 2.55 0 4.45.37 5.69 1.1 1.25.73 1.87 1.85 1.87 3.34 0 .76-.19 1.5-.57 2.22-.38.72-1 1.51-1.85 2.36zM814.09 29.28c-.5 0-1.19.02-2.07.07s-1.45.07-1.71.07c-1.2 0-2.04-.17-2.53-.51-.48-.34-.73-.92-.73-1.74 0-.38.07-.83.2-1.34.13-.51.34-1.09.64-1.74.23 0 .63.02 1.19.04.56.03 1 .04 1.32.04.76 0 1.98-.04 3.65-.13.21 0 .37-.01.48-.04 0-.32.01-.81.04-1.45.03-.64.04-1.11.04-1.41 0-2.29-.15-4.3-.44-6.04-.29-1.74-.75-3.27-1.36-4.59 1.26-.62 2.39-1.08 3.38-1.41 1-.32 1.85-.48 2.55-.48 1.2 0 2.07.37 2.61 1.12s.81 1.97.81 3.67c0 .73-.13 3.03-.4 6.9-.09 1.44-.16 2.58-.22 3.43 1.7-.23 3.23-.41 4.59-.53 1.36-.12 2.58-.18 3.67-.18.97 0 1.66.18 2.09.53s.64.92.64 1.71c0 .44-.13.99-.4 1.65s-.64 1.4-1.14 2.22c-.76-.18-1.57-.31-2.42-.4s-1.88-.13-3.08-.13c-.21 0-.82.02-1.85.07s-1.9.08-2.64.11c-.26 4.57-.45 8.33-.57 11.29-.12 2.96-.18 5.38-.18 7.25 0 4.07.36 6.92 1.08 8.55s1.93 2.44 3.63 2.44c.47 0 .96-.09 1.47-.26s1.03-.45 1.56-.83c.26.59.45 1.1.57 1.54s.18.83.18 1.19c0 1.44-.59 2.61-1.78 3.54-1.19.92-2.73 1.38-4.64 1.38-3.16 0-5.51-1.05-7.05-3.14s-2.31-5.31-2.31-9.65c0-1.23.15-4.49.44-9.78.32-5.29.54-9.63.69-13.03zM861.15 65.62c-6.8 0-12.33-2.09-16.61-6.28-4.28-4.19-6.42-9.56-6.42-16.13 0-6.97 2.29-12.63 6.86-16.98s10.5-6.53 17.8-6.53c6.59 0 12.02 2.07 16.28 6.2 4.26 4.13 6.39 9.36 6.39 15.69 0 2.55-.4 5.07-1.21 7.56-.81 2.49-1.9 4.61-3.27 6.37-2.61 3.37-5.56 5.9-8.85 7.58-3.3 1.68-6.95 2.52-10.97 2.52zm.53-6.33c4.75 0 8.63-1.59 11.67-4.77 3.03-3.18 4.55-7.26 4.55-12.24 0-4.86-1.49-8.83-4.46-11.89-2.97-3.06-6.83-4.59-11.58-4.59-4.83 0-8.74 1.59-11.71 4.77-2.97 3.18-4.46 7.39-4.46 12.63 0 4.66 1.51 8.5 4.53 11.54s6.83 4.55 11.46 4.55zM902.37 29.94c2.2-3.08 4.29-5.37 6.28-6.88 1.99-1.51 3.96-2.26 5.89-2.26 1.64 0 3.04.52 4.2 1.56 1.16 1.04 1.74 2.32 1.74 3.85 0 1-.33 1.97-.99 2.92-.66.95-1.65 1.9-2.97 2.83-.47-1.29-1.05-2.24-1.74-2.86-.69-.62-1.52-.92-2.48-.92-1.44 0-2.94.71-4.53 2.13-1.58 1.42-3.13 3.46-4.66 6.13-.15 1.32-.26 2.66-.35 4.02s-.13 2.69-.13 3.98c0 4.39.24 8.06.73 10.99.48 2.93 1.24 5.33 2.26 7.21a18.31 18.31 0 0 1-3.45 1.41c-1.13.32-2.23.48-3.32.48-1.44 0-2.42-.36-2.97-1.08-.54-.72-.81-2.16-.81-4.33 0-.79.15-3.83.46-9.12.31-5.29.46-10.2.46-14.74 0-3.72-.15-6.58-.44-8.57-.29-1.99-.78-3.75-1.45-5.27.59-.2 1.17-.36 1.74-.46.57-.1 1.17-.15 1.78-.15 1.7 0 2.96.4 3.78 1.21.82.81 1.23 2.04 1.23 3.71 0 .38-.02.9-.07 1.56-.03.65-.1 1.53-.19 2.65z"/></g></svg>
